<?xml version="1.0" standalone="no"?>
<!DOCTYPE svg PUBLIC "-//W3C//DTD SVG 20010904//EN"
 "http://www.w3.org/TR/2001/REC-SVG-20010904/DTD/svg10.dtd">
<svg version="1.0" xmlns="http://www.w3.org/2000/svg"
 width="284.000000pt" height="284.000000pt" viewBox="0 0 284.000000 284.000000"
 preserveAspectRatio="xMidYMid meet">

<g transform="translate(0.000000,284.000000) scale(0.100000,-0.100000)"
fill="#ff0000" stroke="none">
<path d="M1145 2786 c-262 -56 -496 -187 -705 -396 -258 -258 -385 -528 -410
-875 -30 -419 113 -797 412 -1091 240 -237 513 -366 851 -404 167 -19 382 8
577 72 389 127 737 469 870 853 61 175 89 410 72 585 -26 257 -86 433 -219
633 -217 328 -576 568 -947 632 -137 23 -365 19 -501 -9z m-295 -818 c137 -88
289 -247 398 -415 66 -104 138 -309 157 -452 9 -68 18 -54 40 64 10 50 28 119
42 155 13 36 28 79 33 95 37 120 196 330 347 457 100 84 288 202 309 194 12
-4 14 -54 14 -285 l0 -280 101 -52 c55 -28 103 -58 106 -65 8 -22 -14 -41 -69
-59 -189 -61 -457 -255 -635 -457 -112 -127 -140 -167 -208 -286 -47 -83 -60
-100 -72 -91 -7 7 -34 49 -59 95 -116 214 -319 430 -540 576 -145 95 -209 131
-298 163 -109 39 -101 63 41 131 l93 44 0 273 c0 198 3 276 12 285 13 13 73
-17 188 -90z"/>
<path d="M1018 1481 c-25 -22 -32 -36 -31 -63 2 -64 36 -98 97 -98 62 0 102
79 72 138 -31 59 -87 69 -138 23z"/>
<path d="M1701 1484 c-42 -35 -44 -98 -5 -135 36 -34 108 -34 135 0 30 37 25
96 -10 132 -37 37 -79 38 -120 3z"/>
</g>
</svg>
